<?xml version="1.0" standalone="no"?>
<!DOCTYPE svg PUBLIC "-//W3C//DTD SVG 20010904//EN"
 "http://www.w3.org/TR/2001/REC-SVG-20010904/DTD/svg10.dtd">
<svg version="1.0" xmlns="http://www.w3.org/2000/svg"
 width="300.000000pt" height="300.000000pt" viewBox="0 0 300.000000 300.000000"
 preserveAspectRatio="xMidYMid meet">
<metadata>
Created by potrace 1.14, written by Peter Selinger 2001-2017
</metadata>
<g transform="translate(0.000000,300.000000) scale(0.100000,-0.100000)"
fill="#000000" stroke="none">
<path d="M1338 2110 c-209 -55 -340 -194 -398 -425 -23 -89 -31 -253 -18 -368
8 -75 44 -239 58 -266 4 -9 20 -47 35 -84 31 -77 87 -168 131 -211 20 -20 25
-30 16 -33 -25 -9 -70 -53 -81 -80 -9 -22 -23 -32 -69 -45 -32 -9 -75 -28 -95
-42 l-38 -26 -37 24 c-37 23 -133 49 -182 49 -22 0 -84 -8 -130 -16 -8 -2 -25
-8 -37 -15 -12 -7 -31 -12 -42 -12 -12 0 -21 -4 -21 -9 0 -5 -12 -14 -27 -20
-60 -25 -182 -159 -167 -183 3 -4 1 -8 -4 -8 -23 0 -60 -150 -55 -225 2 -27 8
-64 14 -82 l11 -33 1399 0 1399 0 0 274 0 275 -72 34 c-105 50 -135 58 -248
62 -61 3 -189 -20 -200 -35 -3 -4 -16 -11 -30 -15 -27 -9 -117 -72 -139 -98
-18 -22 -26 -21 -28 2 -1 10 -12 41 -25 67 -18 38 -35 56 -77 81 -29 18 -56
32 -60 31 -3 0 -26 3 -49 7 -40 7 -82 37 -82 57 0 10 -84 50 -115 55 -38 6
-70 11 -79 12 -5 1 0 11 11 24 30 32 68 104 89 167 16 47 19 84 18 240 -3 377
-25 522 -100 672 -53 106 -115 161 -229 204 -41 15 -179 12 -247 -6z"/>
</g>
</svg>
